<?xml version="1.0" standalone="no"?>
<!DOCTYPE svg PUBLIC "-//W3C//DTD SVG 20010904//EN"
 "http://www.w3.org/TR/2001/REC-SVG-20010904/DTD/svg10.dtd">
<svg version="1.0" xmlns="http://www.w3.org/2000/svg"
 width="290.000000pt" height="290.000000pt" viewBox="0 0 290.000000 290.000000"
 preserveAspectRatio="xMidYMid meet">
<metadata>
Created by potrace 1.11, written by Peter Selinger 2001-2013
</metadata>
<g transform="translate(0.000000,290.000000) scale(0.100000,-0.100000)"
fill="#000000" stroke="none">
<path d="M1818 2155 c-2 -3 -39 -14 -81 -24 -57 -15 -115 -20 -243 -22 -236
-3 -320 -29 -406 -129 l-42 -48 -44 30 c-79 54 -137 71 -222 64 -135 -11 -227
-47 -410 -160 -63 -39 -132 -79 -152 -89 -43 -20 -74 -56 -83 -97 -5 -22 -15
-31 -43 -40 -20 -6 -43 -13 -50 -16 -8 -2 16 -50 69 -136 45 -73 90 -146 99
-163 10 -16 47 -77 84 -135 36 -58 73 -118 82 -135 8 -16 27 -49 42 -72 15
-24 64 -103 110 -177 l82 -135 33 14 c17 8 56 26 86 40 129 63 428 191 526
225 28 9 102 36 165 59 66 23 122 38 133 35 69 -22 208 7 297 61 55 34 99 46
215 60 28 3 97 13 155 21 107 15 125 17 240 29 36 4 73 9 82 10 9 2 45 6 80
10 35 3 77 8 93 11 17 2 52 6 78 9 26 2 51 6 56 9 4 3 8 37 9 75 l1 70 -89 67
c-50 36 -90 72 -90 80 0 7 -12 21 -27 31 -100 63 -440 300 -609 425 -192 141
-214 155 -226 143z"/>
</g>
</svg>
